<svg width="16" height="18" viewBox="0 0 16 18" fill="none" xmlns="http://www.w3.org/2000/svg">
<path d="M6.93671 0.347977C3.11134 0.347977 -0.000488281 3.68516 -0.000488281 7.78756C-0.000488281 11.89 3.11134 15.2271 6.93671 15.2271C8.10612 15.2271 9.25571 14.9296 10.2269 14.3556C10.3047 14.456 10.391 14.5485 10.4846 14.632L12.4666 16.7576C12.6497 16.9784 12.8728 17.1568 13.1225 17.2818C13.3721 17.4068 13.6429 17.4758 13.9183 17.4845C14.1937 17.4932 14.4679 17.4414 14.7239 17.3324C14.98 17.2233 15.2126 17.0593 15.4074 16.8504C15.6022 16.6415 15.7551 16.3921 15.8568 16.1175C15.9585 15.8429 16.0067 15.5489 15.9986 15.2535C15.9905 14.9582 15.9262 14.6678 15.8097 14.4C15.6931 14.1323 15.5267 13.893 15.3208 13.6967L13.3387 11.5711C13.2422 11.4675 13.1359 11.3749 13.0216 11.2948C13.5568 10.2532 13.8937 9.04166 13.8937 7.7663C13.8937 3.6639 10.7819 0.326721 6.95653 0.326721L6.93671 0.347977ZM6.93671 2.47357C9.69177 2.47357 11.8918 4.83298 11.8918 7.78756C11.8918 9.19045 11.4162 10.4871 10.5837 11.4436C10.5639 11.4648 10.544 11.4861 10.5242 11.5073C10.4306 11.5908 10.3444 11.6833 10.2666 11.7837C9.39446 12.6339 8.20522 13.1228 6.91689 13.1228C4.16183 13.1228 1.96175 10.7634 1.96175 7.80881C1.96175 4.85424 4.16183 2.49483 6.91689 2.49483L6.93671 2.47357Z" fill="black" fill-opacity="0.7"/>
</svg>
