<svg width="19" height="23" viewBox="0 0 19 23" fill="none" xmlns="http://www.w3.org/2000/svg">
<path d="M18.77 2.43361V4.9708C18.77 5.89342 18.2244 7.04668 17.6787 7.62332L12.9864 12.0058C12.3316 12.5824 11.8951 13.7357 11.8951 14.6583V19.6174C11.8951 20.3093 11.4586 21.2319 10.913 21.5779L9.38525 22.6159C7.96662 23.5385 6.00233 22.5005 6.00233 20.6553V14.543C6.00233 13.7357 5.56583 12.6977 5.12933 12.1211L4.61644 11.556C4.27815 11.1754 4.21268 10.5988 4.48549 10.149L10.0727 0.669111C10.2692 0.334663 10.6184 0.127075 11.0003 0.127075H16.5875C17.7879 0.127075 18.77 1.16502 18.77 2.43361Z" fill="white"/>
<path d="M7.5842 1.89158L3.71025 8.45367C3.33922 9.08797 2.48805 9.18023 1.99699 8.63819L0.982124 7.50799C0.4365 6.93136 0 5.89342 0 5.20146V2.54894C0 1.16502 0.982125 0.127075 2.1825 0.127075H6.65662C7.50781 0.127075 8.03161 1.11889 7.5842 1.89158Z" fill="white"/>
</svg>
