<svg width="11" height="9" viewBox="0 0 11 9" fill="none" xmlns="http://www.w3.org/2000/svg">
<path d="M2.7562 0.302856C2.0635 0.302856 1.44637 0.589193 0.980379 1.03737C0.526978 1.48555 0.237305 2.09557 0.237305 2.79274C0.237305 3.47746 0.526978 4.08748 0.980379 4.54811L5.2751 8.79336L9.56981 4.54811C10.0232 4.09993 10.3129 3.48991 10.3129 2.79274C10.3129 2.10802 10.0232 1.498 9.56981 1.03737C9.11641 0.589193 8.49928 0.302856 7.79399 0.302856C7.1013 0.302856 6.48417 0.589193 6.01817 1.03737C5.56477 1.48555 5.2751 2.09557 5.2751 2.79274C5.2751 2.10802 4.98542 1.498 4.53202 1.03737C4.07862 0.589193 3.46149 0.302856 2.7562 0.302856Z" fill="white"/>
</svg>
